<mxfile host="app.diagrams.net" agent="Mozilla/5.0 (Windows NT 10.0; Win64; x64) AppleWebKit/537.36 (KHTML, like Gecko) Chrome/129.0.0.0 Safari/537.36" version="24.7.17">
  <diagram id="C5RBs43oDa-KdzZeNtuy" name="Page-1">
    <mxGraphModel dx="949" dy="653" grid="1" gridSize="10" guides="1" tooltips="1" connect="1" arrows="1" fold="1" page="1" pageScale="1" pageWidth="827" pageHeight="1169" math="0" shadow="0">
      <root>
        <mxCell id="WIyWlLk6GJQsqaUBKTNV-0" />
        <mxCell id="WIyWlLk6GJQsqaUBKTNV-1" parent="WIyWlLk6GJQsqaUBKTNV-0" />
        <mxCell id="Oz5qUPpXz8eweduWkFlj-1" style="edgeStyle=orthogonalEdgeStyle;rounded=0;orthogonalLoop=1;jettySize=auto;html=1;entryX=0.5;entryY=0;entryDx=0;entryDy=0;" parent="WIyWlLk6GJQsqaUBKTNV-1" source="WIyWlLk6GJQsqaUBKTNV-3" target="Oz5qUPpXz8eweduWkFlj-0" edge="1">
          <mxGeometry relative="1" as="geometry" />
        </mxCell>
        <mxCell id="WIyWlLk6GJQsqaUBKTNV-3" value="开始" style="rounded=1;whiteSpace=wrap;html=1;fontSize=12;glass=0;strokeWidth=1;shadow=0;" parent="WIyWlLk6GJQsqaUBKTNV-1" vertex="1">
          <mxGeometry x="480" width="120" height="40" as="geometry" />
        </mxCell>
        <mxCell id="WIyWlLk6GJQsqaUBKTNV-5" value="No" style="edgeStyle=orthogonalEdgeStyle;rounded=0;html=1;jettySize=auto;orthogonalLoop=1;fontSize=11;endArrow=block;endFill=0;endSize=8;strokeWidth=1;shadow=0;labelBackgroundColor=none;entryX=1;entryY=0.5;entryDx=0;entryDy=0;" parent="WIyWlLk6GJQsqaUBKTNV-1" source="WIyWlLk6GJQsqaUBKTNV-6" target="Oz5qUPpXz8eweduWkFlj-6" edge="1">
          <mxGeometry x="0.0047" y="10" relative="1" as="geometry">
            <mxPoint as="offset" />
            <mxPoint x="650" y="220" as="targetPoint" />
            <Array as="points">
              <mxPoint x="675" y="420" />
              <mxPoint x="675" y="335" />
            </Array>
          </mxGeometry>
        </mxCell>
        <mxCell id="Oz5qUPpXz8eweduWkFlj-19" style="edgeStyle=orthogonalEdgeStyle;rounded=0;orthogonalLoop=1;jettySize=auto;html=1;exitX=0;exitY=0.5;exitDx=0;exitDy=0;entryX=1;entryY=0.5;entryDx=0;entryDy=0;" parent="WIyWlLk6GJQsqaUBKTNV-1" source="WIyWlLk6GJQsqaUBKTNV-6" target="Oz5qUPpXz8eweduWkFlj-10" edge="1">
          <mxGeometry relative="1" as="geometry" />
        </mxCell>
        <mxCell id="WIyWlLk6GJQsqaUBKTNV-6" value="RI == 1?" style="rhombus;whiteSpace=wrap;html=1;shadow=0;fontFamily=Helvetica;fontSize=12;align=center;strokeWidth=1;spacing=6;spacingTop=-4;" parent="WIyWlLk6GJQsqaUBKTNV-1" vertex="1">
          <mxGeometry x="490" y="370" width="100" height="80" as="geometry" />
        </mxCell>
        <mxCell id="Oz5qUPpXz8eweduWkFlj-3" style="edgeStyle=orthogonalEdgeStyle;rounded=0;orthogonalLoop=1;jettySize=auto;html=1;" parent="WIyWlLk6GJQsqaUBKTNV-1" source="Oz5qUPpXz8eweduWkFlj-0" target="Oz5qUPpXz8eweduWkFlj-2" edge="1">
          <mxGeometry relative="1" as="geometry" />
        </mxCell>
        <mxCell id="Oz5qUPpXz8eweduWkFlj-0" value="UART初始化&amp;nbsp;&lt;div&gt;uart_init()&lt;br&gt;设置波特率、计数器及中断&lt;/div&gt;" style="rounded=1;whiteSpace=wrap;html=1;fontSize=12;glass=0;strokeWidth=1;shadow=0;" parent="WIyWlLk6GJQsqaUBKTNV-1" vertex="1">
          <mxGeometry x="425" y="80" width="230" height="80" as="geometry" />
        </mxCell>
        <mxCell id="Oz5qUPpXz8eweduWkFlj-5" style="edgeStyle=orthogonalEdgeStyle;rounded=0;orthogonalLoop=1;jettySize=auto;html=1;entryX=0.5;entryY=0;entryDx=0;entryDy=0;" parent="WIyWlLk6GJQsqaUBKTNV-1" source="Oz5qUPpXz8eweduWkFlj-2" target="Oz5qUPpXz8eweduWkFlj-4" edge="1">
          <mxGeometry relative="1" as="geometry" />
        </mxCell>
        <mxCell id="Oz5qUPpXz8eweduWkFlj-2" value="主循环 while(1);&lt;div&gt;程序等待中断触发&lt;/div&gt;" style="rounded=1;whiteSpace=wrap;html=1;fontSize=12;glass=0;strokeWidth=1;shadow=0;" parent="WIyWlLk6GJQsqaUBKTNV-1" vertex="1">
          <mxGeometry x="425" y="190" width="230" height="50" as="geometry" />
        </mxCell>
        <mxCell id="Oz5qUPpXz8eweduWkFlj-8" style="edgeStyle=orthogonalEdgeStyle;rounded=0;orthogonalLoop=1;jettySize=auto;html=1;entryX=0.5;entryY=0;entryDx=0;entryDy=0;" parent="WIyWlLk6GJQsqaUBKTNV-1" source="Oz5qUPpXz8eweduWkFlj-4" target="Oz5qUPpXz8eweduWkFlj-6" edge="1">
          <mxGeometry relative="1" as="geometry" />
        </mxCell>
        <mxCell id="Oz5qUPpXz8eweduWkFlj-4" value="中断触发 uartt()" style="rounded=1;whiteSpace=wrap;html=1;fontSize=12;glass=0;strokeWidth=1;shadow=0;" parent="WIyWlLk6GJQsqaUBKTNV-1" vertex="1">
          <mxGeometry x="450" y="260" width="180" height="30" as="geometry" />
        </mxCell>
        <mxCell id="Oz5qUPpXz8eweduWkFlj-9" style="edgeStyle=orthogonalEdgeStyle;rounded=0;orthogonalLoop=1;jettySize=auto;html=1;entryX=0.5;entryY=0;entryDx=0;entryDy=0;" parent="WIyWlLk6GJQsqaUBKTNV-1" source="Oz5qUPpXz8eweduWkFlj-6" target="WIyWlLk6GJQsqaUBKTNV-6" edge="1">
          <mxGeometry relative="1" as="geometry" />
        </mxCell>
        <mxCell id="Oz5qUPpXz8eweduWkFlj-6" value="检查RI标志位(接收中断)" style="rounded=1;whiteSpace=wrap;html=1;fontSize=12;glass=0;strokeWidth=1;shadow=0;" parent="WIyWlLk6GJQsqaUBKTNV-1" vertex="1">
          <mxGeometry x="450" y="320" width="180" height="30" as="geometry" />
        </mxCell>
        <mxCell id="Oz5qUPpXz8eweduWkFlj-20" style="edgeStyle=orthogonalEdgeStyle;rounded=0;orthogonalLoop=1;jettySize=auto;html=1;" parent="WIyWlLk6GJQsqaUBKTNV-1" source="Oz5qUPpXz8eweduWkFlj-10" target="Oz5qUPpXz8eweduWkFlj-15" edge="1">
          <mxGeometry relative="1" as="geometry" />
        </mxCell>
        <mxCell id="Oz5qUPpXz8eweduWkFlj-10" value="读取接收的数据 rec_data = SBUF " style="rounded=1;whiteSpace=wrap;html=1;fontSize=12;glass=0;strokeWidth=1;shadow=0;" parent="WIyWlLk6GJQsqaUBKTNV-1" vertex="1">
          <mxGeometry x="174" y="395" width="240" height="30" as="geometry" />
        </mxCell>
        <mxCell id="Oz5qUPpXz8eweduWkFlj-14" value="yes" style="text;html=1;align=center;verticalAlign=middle;whiteSpace=wrap;rounded=0;" parent="WIyWlLk6GJQsqaUBKTNV-1" vertex="1">
          <mxGeometry x="420" y="380" width="60" height="30" as="geometry" />
        </mxCell>
        <mxCell id="Oz5qUPpXz8eweduWkFlj-22" value="" style="edgeStyle=orthogonalEdgeStyle;rounded=0;orthogonalLoop=1;jettySize=auto;html=1;" parent="WIyWlLk6GJQsqaUBKTNV-1" source="Oz5qUPpXz8eweduWkFlj-15" target="Oz5qUPpXz8eweduWkFlj-18" edge="1">
          <mxGeometry relative="1" as="geometry" />
        </mxCell>
        <mxCell id="Oz5qUPpXz8eweduWkFlj-15" value="将接收到的数据发送回去 SBUF=rec_data &lt;div&gt;等待 TI 标志位 (发送完成)&lt;br&gt;&lt;/div&gt;" style="rounded=1;whiteSpace=wrap;html=1;fontSize=12;glass=0;strokeWidth=1;shadow=0;" parent="WIyWlLk6GJQsqaUBKTNV-1" vertex="1">
          <mxGeometry x="174" y="300" width="240" height="60" as="geometry" />
        </mxCell>
        <mxCell id="Oz5qUPpXz8eweduWkFlj-24" value="" style="edgeStyle=orthogonalEdgeStyle;rounded=0;orthogonalLoop=1;jettySize=auto;html=1;" parent="WIyWlLk6GJQsqaUBKTNV-1" source="Oz5qUPpXz8eweduWkFlj-18" target="Oz5qUPpXz8eweduWkFlj-23" edge="1">
          <mxGeometry relative="1" as="geometry" />
        </mxCell>
        <mxCell id="Oz5qUPpXz8eweduWkFlj-18" value="TI==1？" style="rhombus;whiteSpace=wrap;html=1;" parent="WIyWlLk6GJQsqaUBKTNV-1" vertex="1">
          <mxGeometry x="229" y="175" width="130" height="80" as="geometry" />
        </mxCell>
        <mxCell id="Oz5qUPpXz8eweduWkFlj-21" value="No" style="rounded=0;html=1;jettySize=auto;orthogonalLoop=1;fontSize=11;endArrow=block;endFill=0;endSize=8;strokeWidth=1;shadow=0;labelBackgroundColor=none;entryX=0;entryY=0.5;entryDx=0;entryDy=0;exitX=1;exitY=0.5;exitDx=0;exitDy=0;" parent="WIyWlLk6GJQsqaUBKTNV-1" source="Oz5qUPpXz8eweduWkFlj-18" target="Oz5qUPpXz8eweduWkFlj-2" edge="1">
          <mxGeometry x="0.0047" y="10" relative="1" as="geometry">
            <mxPoint as="offset" />
            <mxPoint x="276.5" y="190" as="sourcePoint" />
            <mxPoint x="273.5" y="75" as="targetPoint" />
          </mxGeometry>
        </mxCell>
        <mxCell id="Oz5qUPpXz8eweduWkFlj-28" value="" style="edgeStyle=orthogonalEdgeStyle;rounded=0;orthogonalLoop=1;jettySize=auto;html=1;" parent="WIyWlLk6GJQsqaUBKTNV-1" source="Oz5qUPpXz8eweduWkFlj-23" target="Oz5qUPpXz8eweduWkFlj-27" edge="1">
          <mxGeometry relative="1" as="geometry" />
        </mxCell>
        <mxCell id="Oz5qUPpXz8eweduWkFlj-23" value="清除TI标志位 TI=0" style="whiteSpace=wrap;html=1;" parent="WIyWlLk6GJQsqaUBKTNV-1" vertex="1">
          <mxGeometry x="70" y="197.5" width="120" height="35" as="geometry" />
        </mxCell>
        <mxCell id="Oz5qUPpXz8eweduWkFlj-25" value="yes" style="text;html=1;align=center;verticalAlign=middle;whiteSpace=wrap;rounded=0;" parent="WIyWlLk6GJQsqaUBKTNV-1" vertex="1">
          <mxGeometry x="190" y="190" width="60" height="30" as="geometry" />
        </mxCell>
        <mxCell id="Oz5qUPpXz8eweduWkFlj-29" style="rounded=0;orthogonalLoop=1;jettySize=auto;html=1;entryX=0;entryY=0;entryDx=0;entryDy=0;" parent="WIyWlLk6GJQsqaUBKTNV-1" source="Oz5qUPpXz8eweduWkFlj-27" target="Oz5qUPpXz8eweduWkFlj-2" edge="1">
          <mxGeometry relative="1" as="geometry" />
        </mxCell>
        <mxCell id="Oz5qUPpXz8eweduWkFlj-27" value="&#xa;中断结束，返回主循环 (等待下次中断) &#xa;&#xa;" style="whiteSpace=wrap;html=1;" parent="WIyWlLk6GJQsqaUBKTNV-1" vertex="1">
          <mxGeometry x="70" y="86.25" width="120" height="67.5" as="geometry" />
        </mxCell>
        <mxCell id="tv_KJPq6DxNYr5_e_fYC-6" value="" style="edgeStyle=orthogonalEdgeStyle;rounded=0;orthogonalLoop=1;jettySize=auto;html=1;" edge="1" parent="WIyWlLk6GJQsqaUBKTNV-1" source="tv_KJPq6DxNYr5_e_fYC-0" target="tv_KJPq6DxNYr5_e_fYC-3">
          <mxGeometry relative="1" as="geometry" />
        </mxCell>
        <mxCell id="tv_KJPq6DxNYr5_e_fYC-0" value="开始" style="rounded=1;whiteSpace=wrap;html=1;" vertex="1" parent="WIyWlLk6GJQsqaUBKTNV-1">
          <mxGeometry x="160" y="640" width="120" height="60" as="geometry" />
        </mxCell>
        <mxCell id="tv_KJPq6DxNYr5_e_fYC-8" value="" style="edgeStyle=orthogonalEdgeStyle;rounded=0;orthogonalLoop=1;jettySize=auto;html=1;" edge="1" parent="WIyWlLk6GJQsqaUBKTNV-1" source="tv_KJPq6DxNYr5_e_fYC-3" target="tv_KJPq6DxNYr5_e_fYC-7">
          <mxGeometry relative="1" as="geometry" />
        </mxCell>
        <mxCell id="tv_KJPq6DxNYr5_e_fYC-3" value="初始化 Dialog 类&amp;nbsp;&lt;div&gt;&lt;span style=&quot;background-color: initial;&quot;&gt;设置 UI 初始状态&lt;/span&gt;&lt;/div&gt;" style="rounded=0;whiteSpace=wrap;html=1;" vertex="1" parent="WIyWlLk6GJQsqaUBKTNV-1">
          <mxGeometry x="160" y="730" width="120" height="60" as="geometry" />
        </mxCell>
        <mxCell id="tv_KJPq6DxNYr5_e_fYC-10" value="" style="edgeStyle=orthogonalEdgeStyle;rounded=0;orthogonalLoop=1;jettySize=auto;html=1;" edge="1" parent="WIyWlLk6GJQsqaUBKTNV-1" source="tv_KJPq6DxNYr5_e_fYC-7" target="tv_KJPq6DxNYr5_e_fYC-9">
          <mxGeometry relative="1" as="geometry" />
        </mxCell>
        <mxCell id="tv_KJPq6DxNYr5_e_fYC-7" value="&lt;p data-pm-slice=&quot;1 1 []&quot;&gt;初始化 COM 端口   &lt;/p&gt;&lt;p&gt; 扫描可用端口&amp;nbsp;&lt;/p&gt;&lt;p&gt;&amp;nbsp;初始化波特率下拉框&amp;nbsp;&amp;nbsp;&lt;/p&gt;" style="rounded=0;whiteSpace=wrap;html=1;" vertex="1" parent="WIyWlLk6GJQsqaUBKTNV-1">
          <mxGeometry x="160" y="810" width="120" height="110" as="geometry" />
        </mxCell>
        <mxCell id="tv_KJPq6DxNYr5_e_fYC-12" value="" style="edgeStyle=orthogonalEdgeStyle;rounded=0;orthogonalLoop=1;jettySize=auto;html=1;" edge="1" parent="WIyWlLk6GJQsqaUBKTNV-1" source="tv_KJPq6DxNYr5_e_fYC-9" target="tv_KJPq6DxNYr5_e_fYC-11">
          <mxGeometry relative="1" as="geometry" />
        </mxCell>
        <mxCell id="tv_KJPq6DxNYr5_e_fYC-9" value="用户点击 &quot;连接&quot; 按钮" style="rounded=0;whiteSpace=wrap;html=1;" vertex="1" parent="WIyWlLk6GJQsqaUBKTNV-1">
          <mxGeometry x="160" y="950" width="120" height="60" as="geometry" />
        </mxCell>
        <mxCell id="tv_KJPq6DxNYr5_e_fYC-14" value="" style="edgeStyle=orthogonalEdgeStyle;rounded=0;orthogonalLoop=1;jettySize=auto;html=1;" edge="1" parent="WIyWlLk6GJQsqaUBKTNV-1" source="tv_KJPq6DxNYr5_e_fYC-11" target="tv_KJPq6DxNYr5_e_fYC-13">
          <mxGeometry relative="1" as="geometry" />
        </mxCell>
        <mxCell id="tv_KJPq6DxNYr5_e_fYC-11" value="&lt;p data-pm-slice=&quot;1 1 []&quot;&gt;连接串口&lt;/p&gt;&lt;p&gt;检查串口状态&lt;/p&gt;&lt;p&gt;配置并打开串口&lt;/p&gt;" style="whiteSpace=wrap;html=1;rounded=0;" vertex="1" parent="WIyWlLk6GJQsqaUBKTNV-1">
          <mxGeometry x="160" y="1030" width="120" height="90" as="geometry" />
        </mxCell>
        <mxCell id="tv_KJPq6DxNYr5_e_fYC-16" value="" style="edgeStyle=orthogonalEdgeStyle;rounded=0;orthogonalLoop=1;jettySize=auto;html=1;" edge="1" parent="WIyWlLk6GJQsqaUBKTNV-1" source="tv_KJPq6DxNYr5_e_fYC-13" target="tv_KJPq6DxNYr5_e_fYC-15">
          <mxGeometry relative="1" as="geometry" />
        </mxCell>
        <mxCell id="tv_KJPq6DxNYr5_e_fYC-13" value="用户点击 &quot;断开&quot; 按钮" style="whiteSpace=wrap;html=1;rounded=0;" vertex="1" parent="WIyWlLk6GJQsqaUBKTNV-1">
          <mxGeometry x="360" y="1045" width="120" height="60" as="geometry" />
        </mxCell>
        <mxCell id="tv_KJPq6DxNYr5_e_fYC-18" value="" style="edgeStyle=orthogonalEdgeStyle;rounded=0;orthogonalLoop=1;jettySize=auto;html=1;" edge="1" parent="WIyWlLk6GJQsqaUBKTNV-1" source="tv_KJPq6DxNYr5_e_fYC-15" target="tv_KJPq6DxNYr5_e_fYC-17">
          <mxGeometry relative="1" as="geometry" />
        </mxCell>
        <mxCell id="tv_KJPq6DxNYr5_e_fYC-15" value="&lt;p data-pm-slice=&quot;1 1 []&quot;&gt;断开串口 &lt;/p&gt;&lt;p&gt;检查串口状态 &lt;/p&gt;&lt;p&gt;关闭串口&amp;nbsp;&lt;/p&gt;" style="whiteSpace=wrap;html=1;rounded=0;" vertex="1" parent="WIyWlLk6GJQsqaUBKTNV-1">
          <mxGeometry x="360" y="930" width="120" height="80" as="geometry" />
        </mxCell>
        <mxCell id="tv_KJPq6DxNYr5_e_fYC-20" value="" style="edgeStyle=orthogonalEdgeStyle;rounded=0;orthogonalLoop=1;jettySize=auto;html=1;" edge="1" parent="WIyWlLk6GJQsqaUBKTNV-1" source="tv_KJPq6DxNYr5_e_fYC-17" target="tv_KJPq6DxNYr5_e_fYC-19">
          <mxGeometry relative="1" as="geometry" />
        </mxCell>
        <mxCell id="tv_KJPq6DxNYr5_e_fYC-17" value="用户点击 &quot;发送&quot; 按钮" style="whiteSpace=wrap;html=1;rounded=0;" vertex="1" parent="WIyWlLk6GJQsqaUBKTNV-1">
          <mxGeometry x="360" y="850" width="120" height="60" as="geometry" />
        </mxCell>
        <mxCell id="tv_KJPq6DxNYr5_e_fYC-22" value="" style="edgeStyle=orthogonalEdgeStyle;rounded=0;orthogonalLoop=1;jettySize=auto;html=1;" edge="1" parent="WIyWlLk6GJQsqaUBKTNV-1" source="tv_KJPq6DxNYr5_e_fYC-19" target="tv_KJPq6DxNYr5_e_fYC-21">
          <mxGeometry relative="1" as="geometry" />
        </mxCell>
        <mxCell id="tv_KJPq6DxNYr5_e_fYC-19" value="&lt;p data-pm-slice=&quot;1 1 []&quot;&gt;发送消息&lt;/p&gt;&lt;p&gt;根据发送模式处理&lt;/p&gt;&lt;p&gt;清空输入框&amp;nbsp;&lt;/p&gt;" style="whiteSpace=wrap;html=1;rounded=0;" vertex="1" parent="WIyWlLk6GJQsqaUBKTNV-1">
          <mxGeometry x="360" y="740" width="120" height="80" as="geometry" />
        </mxCell>
        <mxCell id="tv_KJPq6DxNYr5_e_fYC-26" value="" style="edgeStyle=orthogonalEdgeStyle;rounded=0;orthogonalLoop=1;jettySize=auto;html=1;" edge="1" parent="WIyWlLk6GJQsqaUBKTNV-1" source="tv_KJPq6DxNYr5_e_fYC-21" target="tv_KJPq6DxNYr5_e_fYC-25">
          <mxGeometry relative="1" as="geometry" />
        </mxCell>
        <mxCell id="tv_KJPq6DxNYr5_e_fYC-21" value="&lt;p data-pm-slice=&quot;1 1 []&quot;&gt;串口有数据可读&lt;/p&gt;&lt;p&gt;处理接收到的数据&amp;nbsp; &amp;nbsp;&amp;nbsp;&lt;/p&gt;" style="whiteSpace=wrap;html=1;rounded=0;" vertex="1" parent="WIyWlLk6GJQsqaUBKTNV-1">
          <mxGeometry x="360" y="640" width="120" height="60" as="geometry" />
        </mxCell>
        <mxCell id="tv_KJPq6DxNYr5_e_fYC-25" value="结束" style="rounded=1;whiteSpace=wrap;html=1;" vertex="1" parent="WIyWlLk6GJQsqaUBKTNV-1">
          <mxGeometry x="360" y="550" width="120" height="60" as="geometry" />
        </mxCell>
      </root>
    </mxGraphModel>
  </diagram>
</mxfile>
